<?xml version="1.0" encoding="UTF-8"?>
<!-- Generated by Pixelmator Pro 3.5.7 -->
<svg width="1944" height="864" viewBox="0 0 1944 864" xmlns="http://www.w3.org/2000/svg">
    <path id="Ellipse" fill="#f7d7cc" fill-rule="evenodd" stroke="none" d="M 424.504608 795.503845 C 421.388763 795.506287 418.080383 795.322998 416.000702 794.996033 C 412.975708 794.520447 406.371582 793.229004 401.326874 792.126892 C 396.282135 791.024719 388.817566 788.733032 384.738983 787.035095 C 380.66037 785.337158 373.989471 781.893066 369.912811 779.380798 C 365.836121 776.868469 359.450195 772.319031 355.723358 769.271423 C 351.99649 766.223755 346.635834 760.978516 343.811249 757.615173 C 340.986633 754.251831 336.918488 748.799927 334.770233 745.499939 C 332.621979 742.19989 329.248169 736.124878 327.272186 731.999878 C 325.296234 727.874878 322.584229 721.124878 321.244843 716.999878 C 319.179413 710.638916 318.679718 706.462524 317.95578 689.499878 C 317.486328 678.499939 317.072266 589.39978 317.035858 491.499908 C 316.994904 381.413055 316.607452 312.927612 316.022186 311.999939 C 315.266205 310.801575 312.001801 310.425598 299.787811 310.130798 C 291.379211 309.927795 279.195618 310.242188 272.713593 310.828064 C 260.930634 311.893127 260.927826 311.892578 256.301483 315.964783 C 253.51062 318.421448 249.639389 320.630432 246.547577 321.529236 C 243.728119 322.348877 237.696045 323.674133 233.14328 324.474548 C 228.590515 325.275024 220.126266 326.440613 214.332733 327.064392 C 206.535507 327.90387 201.338165 327.90863 194.328827 327.08197 C 188.567383 326.402466 180.091202 324.383789 172.680389 321.92572 C 165.981308 319.703796 157.800705 316.600342 154.500702 315.029236 C 151.200699 313.45813 145.686325 310.190308 142.246796 307.76947 C 138.807266 305.348633 133.18779 301.147461 129.760468 298.433533 C 126.333138 295.719604 121.311836 291.249939 118.602257 288.499939 C 115.892685 285.749939 111.05043 279.974487 107.840538 275.665955 C 104.630653 271.357361 100.453545 265.057373 98.559288 261.665955 C 96.665047 258.274475 93.691315 252.147888 91.949913 248.05072 C 90.208519 243.953491 87.732468 236.45813 86.44796 231.39447 C 85.16346 226.33075 83.559853 216.481262 82.883507 209.505798 C 81.939697 199.771729 81.919434 194.577087 82.799522 187.162048 C 83.430206 181.848328 85.547012 170.974915 87.502647 162.999939 C 89.45829 155.024963 92.627823 145.172546 94.547569 141.105408 C 96.467316 137.038269 100.026894 130.73822 102.457726 127.105408 C 104.888557 123.472595 110.844208 116.601257 115.690147 111.835876 C 120.536087 107.070435 128.097153 100.611877 132.494843 97.484314 C 136.892517 94.356689 144.542526 89.864136 149.494843 87.499939 C 154.447128 85.135742 161.986435 81.972229 166.248749 80.470642 C 172.835495 78.150269 176.43692 77.618164 190.248749 76.919861 C 199.186417 76.468018 285.925781 75.781006 383.000702 75.39447 C 512.059998 74.880554 561.941162 74.995422 568.584656 75.822205 C 573.581726 76.444092 580.972351 78.070618 585.006531 79.435486 C 589.04071 80.800354 596.861389 84.073486 602.385437 86.708923 C 607.909424 89.344299 615.818848 93.922729 619.963562 96.884705 C 624.108276 99.84668 630.37146 104.791565 633.881531 107.872986 C 637.391602 110.954407 643.846863 117.756592 648.225281 122.98822 C 653.901062 129.770081 657.730347 135.657227 661.567078 143.499939 C 665.007568 150.532837 668.018311 158.678833 669.914734 166.085876 C 671.546143 172.457764 673.413086 182.582764 674.063171 188.585876 C 674.713257 194.588989 674.98291 202.874939 674.664734 206.999939 C 674.346558 211.124939 672.742981 219.808472 671.100281 226.296814 C 669.45752 232.785095 666.626099 241.331543 664.807312 245.289001 C 662.988586 249.24646 659.44104 255.637878 656.9245 259.492126 C 654.40802 263.346375 649.860962 269.429016 646.819031 273.007751 C 643.7771 276.586426 637.059814 282.727295 631.89325 286.656189 C 626.726685 290.585022 618.900696 295.645752 614.500671 297.90033 C 609.789185 300.314514 600.951294 303.496582 593.000671 305.642517 C 580.47113 309.024353 577.88324 309.365234 557.000671 310.392517 L 534.500671 311.499939 C 533.375549 388.999817 532.793396 475.625 532.48114 553.999878 C 532.150208 637.076233 531.506836 699.519043 530.940125 703.740112 C 530.405457 707.722351 528.400391 715.769897 526.483093 721.622925 C 524.565735 727.476074 520.947754 736.14978 518.444031 740.898376 C 515.940247 745.646973 511.252228 752.731201 508.026093 756.640564 C 504.799927 760.549866 498.474548 766.996887 493.969452 770.966736 C 487.916168 776.300781 482.871429 779.60199 474.639374 783.61908 C 468.512787 786.608704 461.025696 789.714722 458.000702 790.521423 C 454.975708 791.328064 448.67569 792.644226 444.000702 793.445251 C 439.325714 794.246216 432.350708 795.117249 428.500702 795.380798 C 427.297577 795.463135 425.920898 795.502686 424.504608 795.503845 Z M 919.983093 791.537048 C 906.810059 791.5177 895.349121 791.331238 891.000671 791.02533 C 884.209717 790.547546 872.760132 788.703186 863.039734 786.523376 C 853.986267 784.493103 841.244141 781.296692 834.723328 779.419861 C 828.202576 777.542969 817.803406 774.027466 811.613953 771.607361 C 805.4245 769.187256 794.215881 764.274109 786.707703 760.689392 C 779.199524 757.104614 767.531189 751.143616 760.778015 747.441345 C 754.024902 743.739014 742.875671 737.029541 736.000671 732.533081 C 729.125671 728.036621 718.775696 720.590698 713.000671 715.986206 C 707.225647 711.381775 697.530334 702.638062 691.45575 696.556519 C 685.381104 690.475098 676.860229 681.224915 672.522156 675.999878 C 668.184082 670.774902 661.613647 662.429504 657.920593 657.454956 C 654.2276 652.480469 647.987244 643.31488 644.053406 637.085815 C 640.119568 630.856812 633.910767 620.549194 630.254578 614.181519 C 626.598328 607.813904 621.224915 597.278198 618.315125 590.767456 C 615.405334 584.256836 611.000183 573.340515 608.524109 566.509644 C 606.047974 559.678833 602.385742 547.882202 600.38739 540.2948 C 598.389038 532.707458 595.430969 519.749878 593.813171 511.499908 C 591.133362 497.83429 590.818359 494.009003 590.278015 468.499908 C 589.9151 451.370209 590.121277 434.482422 590.809265 424.999908 C 591.488098 415.643707 593.31604 402.563354 595.420593 391.999908 C 597.338196 382.374908 599.80426 370.343018 600.901062 365.261627 C 601.997803 360.180206 603.643188 354.445831 604.557312 352.51944 C 605.82196 349.854492 607.688171 348.311523 612.360046 346.066345 C 615.737122 344.44342 623.900696 341.249084 630.500671 338.968689 C 637.100647 336.688293 645.771973 333.267395 649.770203 331.365173 C 653.768494 329.462891 661.426636 324.600403 666.789734 320.560486 C 672.152832 316.520508 679.833435 309.748535 683.858093 305.511658 C 687.88269 301.27478 692.599548 295.758484 694.338562 293.253845 C 696.077576 290.749207 699.005188 286.874146 700.844421 284.642517 C 702.683594 282.41095 706.149292 276.681335 708.545593 271.910095 C 710.941833 267.138855 713.614624 260.14447 714.485046 256.367126 C 715.35553 252.589783 717.05365 246.425049 718.258484 242.665955 C 719.877563 237.614624 720.454224 233.309143 720.473328 226.165955 C 720.487549 220.850037 720.28833 209.34906 720.029968 200.609314 C 719.560242 184.71875 719.560242 184.718079 723.529968 181.24408 C 725.713318 179.333374 731.807495 174.491455 737.070984 170.484314 C 742.334534 166.477173 750.884521 160.403259 756.070984 156.986267 C 761.257507 153.569214 776.075684 145.521851 789.000671 139.101501 C 805.862061 130.725769 816.986389 125.931824 828.379578 122.134705 C 837.113037 119.22406 850.388 115.49646 857.879578 113.849548 C 865.371216 112.202698 875.325684 110.254089 880.000671 109.521423 C 884.675659 108.788696 894.575684 107.644775 902.000671 106.978455 C 909.957581 106.264343 920.633179 106.029846 928.000671 106.408142 C 934.875671 106.76123 946.350647 107.507507 953.500671 108.066345 C 960.650696 108.625183 970.435608 109.746277 975.246765 110.55658 C 980.057861 111.366882 988.157898 112.746948 993.246765 113.622986 C 998.335632 114.498962 1007.675659 116.701172 1014.000671 118.517517 C 1020.325684 120.333862 1033.375732 124.837524 1043.000732 128.52533 C 1052.625732 132.213135 1065.900757 137.849121 1072.500732 141.05072 C 1079.100708 144.25238 1089.411499 149.662354 1095.414795 153.072205 C 1101.418213 156.481995 1111.093262 162.884644 1116.914795 167.30072 C 1122.73645 171.716797 1132.181885 179.17218 1137.903076 183.86908 C 1143.624268 188.565979 1152.973755 196.626282 1158.68042 201.779236 C 1164.387085 206.932129 1172.472534 215.052246 1176.64917 219.824158 C 1180.825928 224.596069 1188.064331 233.583923 1192.735107 239.796814 C 1197.405762 246.009705 1204.810303 256.809692 1209.188232 263.796814 C 1213.566162 270.783936 1221.73584 285.724915 1227.342529 296.999939 C 1233.240967 308.861511 1239.296143 322.767273 1241.71167 329.999939 C 1244.007813 336.874939 1247.932861 349.249939 1250.434326 357.499908 C 1252.935791 365.749908 1255.682251 377.18689 1256.537842 382.915924 C 1257.393433 388.644928 1258.161743 395.394928 1258.246826 397.915924 C 1258.387939 402.100311 1257.325806 404.328827 1246.035889 423.499908 C 1239.234009 435.049896 1229.957275 452.149902 1225.422607 461.499908 C 1220.887817 470.849915 1214.258423 485.024902 1210.690186 492.999908 C 1207.121948 500.974915 1200.495605 516.274902 1195.965576 526.999878 C 1191.435669 537.724915 1184.84729 553.924927 1181.322998 562.999878 C 1177.798828 572.074951 1172.716919 586.024902 1170.030029 593.999878 C 1167.34314 601.974915 1163.97522 612.999878 1162.545654 618.499878 C 1161.116089 623.999878 1159.053711 633.899902 1157.963623 640.499878 C 1156.872681 647.105103 1155.507813 662.615234 1154.928467 674.999878 C 1154.349487 687.374878 1153.642334 699.974915 1153.356201 702.999878 C 1152.862793 708.217224 1152.494141 708.834961 1146.168701 715.019409 C 1142.501221 718.605225 1134.325684 725.346375 1128.000732 729.999878 C 1121.675781 734.653442 1111.100586 741.553894 1104.500732 745.333923 C 1097.900757 749.113892 1087.283325 754.828979 1080.906982 758.033142 C 1074.530762 761.237244 1064.602783 765.870544 1058.844482 768.330017 C 1053.086304 770.789429 1042.076416 774.830139 1034.379639 777.308533 C 1026.682739 779.786865 1013.887695 783.2547 1005.944031 785.015564 C 998.000305 786.776367 987.675659 788.860291 983.000671 789.646423 C 977.10791 790.637268 963.458313 791.192322 938.500671 791.455017 C 932.313171 791.520142 925.970825 791.545776 919.983093 791.537048 Z M 1759.012451 791.517517 C 1753.567749 791.528931 1748.453613 791.357056 1745.99292 791.042908 C 1742.413696 790.585938 1736.083252 789.071045 1731.926514 787.67572 C 1727.769775 786.280334 1721.92334 784.04718 1718.934326 782.714783 C 1715.94519 781.382324 1709.225708 777.4375 1704.000732 773.947205 C 1698.580322 770.326294 1690.937988 763.92926 1686.203857 759.05072 C 1681.640503 754.347961 1677.348267 750.113525 1676.666748 749.640564 C 1676.231689 749.338623 1675.155029 749.657104 1673.475342 750.570251 C 1652.546387 768.909973 1625.297852 779.999939 1595.500732 779.999939 C 1529.502808 779.999939 1476.000732 725.602417 1476.000732 658.499878 C 1476.000732 591.397339 1529.502808 536.999878 1595.500732 536.999878 C 1596.194702 536.999878 1596.885742 537.007446 1597.576904 537.019409 C 1597.862305 536.634277 1597.737915 536.089966 1597.531982 535.269409 C 1597.197876 533.938232 1595.644165 529.396973 1594.078857 525.175659 C 1592.51355 520.954468 1589.599731 513.674927 1587.604248 508.999908 C 1585.608765 504.324921 1582.231201 496.674896 1580.098389 491.999908 C 1577.965576 487.324921 1573.934448 477.424896 1571.141357 469.999908 C 1568.348145 462.574921 1564.2052 451.324921 1561.934326 444.999908 C 1559.663452 438.674896 1556.483765 430.713074 1554.86792 427.306549 C 1553.017578 423.405426 1551.132324 420.858734 1549.77417 420.427643 C 1548.178223 419.921112 1547.052124 420.400055 1545.444092 422.26944 C 1544.249023 423.658722 1541.902222 428.104645 1540.227295 432.148346 C 1538.55249 436.192047 1535.18811 444.674896 1532.750732 450.999908 C 1530.313477 457.324921 1524.903931 470.84375 1520.731201 481.042877 C 1516.558472 491.241974 1510.006958 508.116974 1506.172607 518.542847 C 1502.338257 528.96875 1496.496948 544.024902 1493.192139 551.999878 C 1489.887207 559.974915 1483.491699 575.049927 1478.979248 585.499878 C 1474.466919 595.949951 1467.055054 614.174927 1462.508545 625.999878 C 1457.962158 637.82489 1450.572632 656.949951 1446.08667 668.499878 C 1441.600708 680.049927 1435.194214 696.474915 1431.850342 704.999878 C 1428.506348 713.524902 1423.614258 725.01123 1420.979248 730.525269 C 1418.344116 736.039368 1413.900391 743.97168 1411.104248 748.152283 C 1408.308105 752.332886 1402.04248 759.521606 1397.18042 764.126892 C 1392.087402 768.950928 1385.161865 774.289368 1380.842529 776.720642 C 1376.718994 779.041626 1368.655151 782.50531 1362.922607 784.417908 C 1357.190186 786.330444 1349.575684 788.364563 1346.000732 788.939392 C 1342.425781 789.51416 1334.920654 789.987915 1329.322998 789.992126 C 1323.72522 789.996277 1315.625244 789.51355 1311.322998 788.919861 C 1307.02063 788.326111 1298.822144 786.082947 1293.104248 783.933533 C 1287.386475 781.784058 1279.286499 777.91394 1275.104248 775.333923 C 1270.807983 772.683411 1263.553345 766.697693 1258.426514 761.572205 C 1253.435913 756.582886 1246.48999 748.44989 1242.99292 743.499939 C 1239.495728 738.549927 1234.685547 730.841431 1232.301514 726.370972 C 1229.62085 721.344238 1227.183716 714.857849 1225.916748 709.370972 C 1224.570068 703.538696 1223.671997 695.196472 1223.293701 685.021362 C 1222.843994 672.922607 1223.087036 667.468872 1224.403076 660.040894 C 1225.329224 654.814514 1227.412476 646.579712 1229.033936 641.740112 C 1230.655273 636.900574 1234.878296 626.766663 1238.418701 619.220581 C 1241.959106 611.674561 1248.217773 597.380493 1252.326904 587.456909 C 1256.436035 577.533386 1264.566772 558.744751 1270.395264 545.704956 C 1276.223877 532.665283 1285.996704 510.85965 1292.112061 497.247955 C 1298.227295 483.636261 1308.171753 461.699921 1314.21167 448.499908 C 1320.251465 435.299896 1328.074463 418.087189 1331.596436 410.249908 C 1335.118286 402.412628 1342.105835 386.662628 1347.123779 375.249908 C 1352.141724 363.837189 1360.997925 344.599915 1366.803467 332.499939 C 1372.609009 320.399963 1379.923706 304.649963 1383.059326 297.499939 C 1386.194824 290.349915 1392.811157 275.724915 1397.762451 264.999939 C 1402.713745 254.274963 1409.561157 238.524963 1412.977295 229.999939 C 1416.393433 221.474915 1422.490356 207.524963 1426.526123 198.999939 C 1430.56189 190.474915 1436.775879 177.335876 1440.334717 169.802673 C 1443.893555 162.26947 1449.341919 152.21521 1452.442139 147.458923 C 1455.54248 142.702637 1462.448853 134.28656 1467.789795 128.755798 C 1473.780518 122.552185 1480.677368 116.637573 1485.793701 113.316345 C 1490.355225 110.355408 1499.355225 105.88446 1505.793701 103.382751 C 1512.2323 100.881042 1520.425781 98.195313 1524.000732 97.414001 C 1527.575684 96.632751 1536.803467 95.704712 1544.508545 95.351501 C 1553.089233 94.958191 1562.925293 95.171143 1569.889404 95.90033 C 1576.807373 96.624695 1585.025879 98.283997 1590.879639 100.138611 C 1596.171021 101.815063 1604.644043 105.226379 1609.707764 107.718689 C 1614.771484 110.210999 1621.971436 114.760681 1625.707764 117.830017 C 1629.44397 120.899414 1634.915649 125.680542 1637.86792 128.455017 C 1640.820313 131.229553 1646.475586 137.797363 1650.434326 143.048767 C 1654.393066 148.300171 1659.762817 156.85022 1662.36792 162.048767 C 1664.973145 167.247375 1673.308594 187.024963 1680.891357 205.999939 C 1688.473999 224.974915 1697.282837 246.574951 1700.465576 253.999939 C 1703.648193 261.424927 1709.115112 274.590515 1712.614014 283.255798 C 1716.112793 291.921082 1724.883301 313.97113 1732.104248 332.255798 C 1739.325317 350.540466 1748.067261 372.474915 1751.531982 380.999908 C 1754.996704 389.524902 1759.215454 399.874908 1760.906982 403.999908 C 1762.598511 408.124908 1766.958618 418.924896 1770.594482 427.999908 C 1774.230347 437.074921 1779.451904 450.124908 1782.199951 456.999908 C 1784.94812 463.874908 1789.024414 473.774902 1791.256592 478.999908 C 1793.488892 484.224915 1797.532349 493.674896 1800.24292 499.999908 C 1802.953369 506.324921 1806.872681 515.999878 1808.953857 521.499878 C 1811.035156 526.999878 1815.871826 539.149902 1819.701904 548.499878 C 1823.531982 557.849915 1831.537476 576.974976 1837.490967 590.999878 C 1843.444458 605.024902 1850.244995 621.224915 1852.604248 626.999878 C 1854.963501 632.774902 1858.067139 641.549927 1859.500732 646.499878 C 1860.934448 651.44989 1862.603149 660.506226 1863.209717 666.624878 C 1863.861938 673.205444 1864.057373 684.642944 1863.686279 694.624878 C 1863.341187 703.90625 1862.401245 714.19989 1861.598389 717.499878 C 1860.795532 720.799927 1858.504761 727.315186 1856.508545 731.978394 C 1854.512329 736.641724 1850.450195 744.107971 1847.481201 748.570251 C 1844.373413 753.240845 1838.105103 760.463501 1832.707764 765.591736 C 1827.551147 770.49115 1820.813843 775.99823 1817.735107 777.830017 C 1814.656494 779.661743 1808.48584 782.73999 1804.022217 784.669861 C 1799.558472 786.59967 1792.404419 788.790039 1788.125732 789.537048 C 1783.847046 790.283997 1774.080322 791.115479 1766.422607 791.384705 C 1764.029541 791.468811 1761.487305 791.512268 1759.012451 791.517517 Z M 925.914734 602.480347 C 928.636536 602.491699 931.613159 602.446655 934.500671 602.337769 C 947.62677 601.84314 949.507935 601.504639 964.649109 596.921753 C 974.818787 593.84375 985.74176 589.650513 994.149109 585.597534 C 1001.492004 582.057739 1010.424561 577.262085 1013.998718 574.941284 C 1017.572815 572.620605 1023.647827 568.145264 1027.498779 564.995972 C 1031.349609 561.846741 1037.702881 555.896118 1041.61792 551.771362 C 1045.532837 547.646667 1050.509033 541.848816 1052.676514 538.886597 C 1054.843872 535.924438 1058.88208 529.224915 1061.64917 523.999878 C 1064.41626 518.774902 1068.043945 510.449921 1069.71167 505.499908 C 1071.379517 500.549896 1073.814087 492.689941 1075.121826 488.033112 C 1077.274536 480.36673 1077.500732 477.616821 1077.500732 458.949127 C 1077.500732 444.104889 1077.025024 435.55542 1075.801514 428.415924 C 1074.866943 422.962097 1072.293457 412.874908 1070.084717 405.999908 C 1067.875977 399.124908 1064.318115 389.884552 1062.176514 385.466705 C 1060.035034 381.048859 1055.772827 373.398834 1052.705811 368.466705 C 1049.638916 363.534576 1043.830933 355.69046 1039.799561 351.035095 C 1035.768311 346.3797 1029.327026 339.926331 1025.485107 336.693298 C 1021.643188 333.460266 1016.025696 329.298889 1013.000671 327.445251 C 1009.975647 325.591614 1003.000671 321.768311 997.500671 318.949158 C 990.384216 315.301453 983.175293 312.662109 972.500671 309.796814 C 964.250671 307.582336 953.079285 305.320801 947.676453 304.771423 C 942.27356 304.221985 930.348572 303.999268 921.176453 304.27533 C 905.309448 304.752869 903.796753 304.980835 890.000671 308.968689 C 879.559509 311.986816 872.001648 314.960632 863.000671 319.593689 C 856.125671 323.132446 847.532654 328.253235 843.906921 330.974548 C 840.28125 333.695862 833.0224 340.166443 827.776062 345.353455 C 822.529663 350.540527 815.629272 358.312531 812.440125 362.624908 C 809.250977 366.937256 804.482605 375.041779 801.844421 380.634674 C 799.206299 386.22757 796.109192 394.335846 794.961609 398.652252 C 793.814087 402.968658 791.777649 409.856415 790.436218 413.958893 C 789.094788 418.061401 787.435364 425.261383 786.748718 429.958893 C 786.034363 434.846161 785.523987 447.753052 785.555359 460.130768 C 785.610229 481.761902 785.609924 481.761932 789.89325 495.130768 C 792.249084 502.483612 796.434265 512.996887 799.194031 518.494019 C 801.953796 523.991211 806.839661 532.316162 810.051453 536.994019 C 813.263245 541.671875 819.178528 549.106812 823.195984 553.515503 C 827.21344 557.924255 833.555969 564.166138 837.291687 567.386597 C 841.027405 570.607178 847.742859 575.442627 852.215515 578.130737 C 856.68811 580.818909 864.956116 585.279419 870.586609 588.042847 C 877.666443 591.5177 885.553101 594.30481 896.160828 597.081909 C 904.596985 599.290527 913.525696 601.494446 916.000671 601.980347 C 917.547546 602.284058 921.378357 602.461609 925.914734 602.480347 Z"/>
    <path id="Shape" fill="#ec507b" fill-rule="evenodd" stroke="none" d="M 431.199249 859.862732 C 424.548126 859.8255 415.83429 859.093445 410.000031 858.354919 C 404.454193 857.652893 396.899445 856.298889 391.667999 855.003357 C 386.241821 853.659546 378.256378 851.056335 372.167999 848.870544 C 366.448547 846.817139 359.999329 844.189636 356.490265 842.522888 C 352.903961 840.819397 346.518768 837.343384 340.990265 834.011169 C 335.317413 830.591919 328.628448 826.370728 324.957062 823.446716 C 320.715393 820.06842 312.988251 812.79895 306.328156 805.651794 C 297.992126 796.706055 291.045258 788.236694 284.906281 779.800232 C 280.163239 773.282104 275.055695 765.047852 272.294952 759.956482 C 269.702728 755.175903 266.295166 747.544434 263.863312 741.456482 C 261.377441 735.233276 258.353394 726.843933 256.800812 720.999451 C 255.152939 714.796265 253.773926 707.322632 252.925797 700.499451 C 251.870255 692.007568 251.017685 675.328308 250.472672 659.999451 C 249.364059 628.818726 249.550156 588.881836 248.919937 513.49939 C 248.448441 457.101196 253.431595 406.228546 248.175797 391.99942 C 246.944687 388.666412 246.742645 388.220306 244.099625 387.175201 C 241.686569 386.221039 236.644394 388.223724 232.099625 388.575592 C 223.883148 389.211731 217.341492 390.184967 202.000015 389.731842 C 186.08432 389.261749 179.303635 388.530792 169.263687 386.532623 C 162.132553 385.113373 151.366257 381.721405 143.091812 378.565826 C 132.659866 374.587433 123.633102 370.572662 113.466812 364.864655 C 105.028908 360.127075 95.697952 353.741852 89.64064 348.909607 C 83.768311 344.224915 75.263336 336.179077 68.99025 329.409607 C 61.331562 321.144897 54.602871 312.951111 48.126968 303.645935 C 42.928886 296.176819 37.46534 286.619812 34.486343 280.645935 C 31.728298 275.115112 28.345926 266.581482 26.01564 260.032654 C 23.737095 253.629211 21.271151 245.400818 19.962906 240.032654 C 18.713367 234.905396 17.306719 227.351074 16.544937 221.684998 C 15.784644 216.029968 15.014965 208.432068 15.003922 203.184998 C 14.993071 198.02948 15.867185 190.782898 16.402359 185.499451 C 16.91996 180.389526 17.655407 173.781372 18.386734 169.452576 C 19.172888 164.799255 20.636824 157.086304 22.406265 150.747498 C 24.315014 143.909668 27.521454 134.649048 30.17775 128.25531 C 32.870808 121.773132 37.279991 112.638672 41.009781 106.104919 C 44.862991 99.35498 50.95723 90.111267 55.810562 83.643982 C 60.427856 77.491211 66.676727 70.193665 70.947281 65.852966 C 74.921783 61.813232 81.058655 56.595703 85.636734 52.936951 C 90.276947 49.228516 97.007622 44.297058 102.05275 41.034607 C 107.034607 37.813049 114.030907 33.814697 119.05275 31.284607 C 124.178337 28.702209 131.970367 25.31604 137.962906 23.00531 C 143.783463 20.760925 151.155151 18.17804 155.962906 16.972107 C 160.969543 15.716309 169.442123 14.40741 176.500015 13.487732 C 184.360748 12.46344 195.875946 11.364624 204.500015 10.931091 C 228.703384 9.714417 297.993622 9.586731 373.000031 9.34906 C 467.096252 9.050964 518.520447 8.865173 549 9.886169 C 560.817444 10.282043 573.979675 11.179688 581 11.934998 C 586.679199 12.546021 594.800903 13.660889 600.701172 14.921326 C 606.726929 16.208557 615.06897 18.563477 621.013672 20.552185 C 627.071167 22.578674 635.561768 25.90271 641.623047 28.669373 C 647.596313 31.395874 655.371887 35.407593 660.486328 38.518982 C 665.913696 41.82074 674.223938 47.599731 680.603516 52.636169 C 688.291199 58.705322 699.839355 70.19989 710.234375 78.872498 C 725.001709 91.192932 726.317383 95.112366 731.621094 95.673279 C 734.601685 95.988525 739.933899 91.745361 745.314453 88.972107 C 751.681396 85.69043 760.570618 80.318176 767.5 76.948669 C 774.641724 73.475952 784.954712 68.971069 792.607422 66.079529 C 800.476379 63.106262 812.031982 59.501465 820.607422 56.987732 C 828.787781 54.589844 839.036072 51.943298 845.5 50.464294 C 851.71521 49.042236 861.144409 47.021667 868.5 45.954529 C 876.757629 44.756531 889.711487 43.580994 900 42.966248 C 910.935608 42.312805 926.349609 41.814636 937.464844 42.038513 C 951.559875 42.322449 961.584778 42.85498 975.964844 44.546326 C 987.061279 45.85144 1001.441223 48.506226 1011 50.528748 C 1020.182678 52.471741 1032.959473 55.773071 1042.101563 58.401794 C 1050.734985 60.884216 1061.439087 64.295532 1068.101563 66.788513 C 1074.682495 69.250977 1084.718628 73.545654 1092.5 77.220154 C 1100.727661 81.105347 1112.003418 87.023071 1120 91.477966 C 1127.703125 95.769348 1137.540039 101.720276 1144 105.808044 C 1149.869507 109.522217 1157.311157 114.420044 1162 117.862732 C 1167.275635 121.736206 1176.375488 128.940552 1184 135.526794 C 1192.300903 142.697327 1203.305786 152.756042 1210.570313 160.200623 C 1217.624146 167.429321 1226.741699 177.790649 1232.787109 185.333435 C 1238.939087 193.009216 1247.377563 204.710693 1253.378906 213.729919 C 1259.462646 222.873108 1267.248047 235.671326 1272.316406 244.837341 C 1277.199829 253.668884 1282.942383 265.950745 1287.054688 274.337341 C 1290.775146 281.924927 1294.737793 291.422363 1297.880859 296.837341 C 1300.263184 300.941711 1302.407104 305.454346 1304.308594 306.165466 C 1305.660278 306.671021 1306.347778 306.28186 1307.564453 305.329529 C 1309.305908 303.966492 1311.159302 299.020691 1313.398438 294.499451 C 1316.330444 288.579285 1320.653564 278.643677 1324.277344 270.499451 C 1328.312744 261.430115 1334.112793 248.054199 1338.46875 237.999451 C 1342.772705 228.064758 1348.326294 215.110962 1352.005859 206.499451 C 1355.611572 198.060791 1360.694702 185.660278 1364.75 176.499451 C 1368.800171 167.350098 1374.279297 155.169678 1378.34375 146.999451 C 1382.090576 139.46759 1387.093994 129.989624 1390.642578 124.020935 C 1393.97876 118.409485 1398.971924 110.699036 1402.900391 105.364685 C 1406.965942 99.844177 1413.219116 91.979126 1418.402344 86.515076 C 1423.636719 80.99707 1431.275879 74.079163 1436.902344 69.591248 C 1442.05542 65.480957 1448.776123 60.98938 1453.035156 58.419373 C 1457.310425 55.8396 1464.522827 52.04834 1470.589844 49.274841 C 1477.35144 46.183777 1487.492676 41.993958 1495.378906 39.450623 C 1503.391113 36.866638 1512.06665 34.547302 1518.324219 33.675232 C 1526.046387 32.59906 1541.568604 32.29248 1557.023438 32.499451 C 1579.450928 32.799805 1586.035767 33.063599 1596.589844 34.763123 C 1602.359009 35.692139 1609.709717 37.950745 1614.566406 39.587341 C 1619.536499 41.262146 1627.031982 44.329346 1632.794922 47.034607 C 1638.686157 49.80011 1646.314941 53.832581 1651.294922 56.899841 C 1656.167236 59.900757 1662.88147 64.544312 1667.5 68.327576 C 1673.139648 72.947327 1682.722534 81.815308 1690.515625 90.136169 C 1701.130615 101.469971 1707.077026 108.642029 1714.484375 118.999451 C 1719.567993 126.107727 1724.762695 135.10083 1727.626953 140.499451 C 1730.237427 145.419678 1733.551025 153.095703 1736.042969 158.999451 C 1738.607422 165.075134 1741.760498 173.557556 1744.039063 179.499451 C 1746.335083 185.486755 1749.500488 194.15332 1751.953125 200.499451 C 1754.217651 206.358948 1756.952271 213.121643 1758.488281 216.999451 C 1759.892334 220.544006 1762.13269 226.076111 1763.837891 230.499451 C 1765.752441 235.465698 1768.520752 243.102478 1770.773438 248.999451 C 1773.880859 257.133667 1780.033569 272.963623 1785.753906 287.499451 C 1792.245605 303.995544 1801.456543 326.998718 1808.041016 343.499451 C 1814.472168 359.615753 1823.138916 381.186371 1829.046875 395.99942 C 1834.620483 409.974335 1841.927368 428.493073 1846.935547 440.99942 C 1851.557861 452.542389 1857.567017 467.445282 1861.556641 477.247467 C 1865.40332 486.698608 1871.062256 500.229889 1875.109375 510.247467 C 1878.959351 519.777222 1883.595459 531.620483 1886.535156 538.99939 C 1889.30957 545.963501 1893.409058 556.241333 1896.519531 563.99939 C 1899.697998 571.927124 1904.186157 582.779724 1907.185547 590.49939 C 1910.066772 597.915039 1913.844727 607.75354 1916.177734 614.499451 C 1918.475464 621.143005 1921.929932 630.700256 1923.638672 637.999451 C 1926.046265 648.284058 1927.094849 654.714844 1928.173828 667.499451 C 1929.016724 677.48761 1929.264282 691.500122 1928.712891 701.499451 C 1927.993408 714.547119 1927.196411 720.008911 1925.134766 729.737732 C 1923.761963 736.21582 1921.098877 744.534241 1919.050781 750.009216 C 1916.961182 755.595215 1913.232544 763.936157 1909.896484 770.270935 C 1906.516968 776.688171 1901.556641 784.789124 1897.933594 789.997498 C 1894.38208 795.103027 1888.839355 802.238647 1884.298828 807.19281 C 1879.514771 812.412659 1872.121704 819.700195 1866 824.499451 C 1858.376831 830.47583 1851.967407 834.514771 1843.5 838.991638 C 1836.809448 842.528992 1827.604004 846.175415 1821.382813 848.354919 C 1815.325439 850.47699 1806.4729 853.208008 1799.763672 854.419373 C 1789.542236 856.264832 1783.812012 856.896057 1769.037109 856.999451 C 1755.495972 857.094177 1748.382568 856.482483 1739.78125 854.954529 C 1733.675049 853.869751 1725.02771 851.090088 1718.623047 848.829529 C 1712.467651 846.656982 1705.007324 843.528687 1700.503906 841.237732 C 1696.048828 838.971313 1689.680054 834.268372 1684.117188 831.313904 C 1676.96936 827.517639 1674.967773 825.782104 1671.611328 825.550232 C 1668.488892 825.334473 1661.718994 828.747437 1654.691406 830.673279 C 1646.536865 832.907898 1636.223389 835.817871 1628.691406 837.061951 C 1621.782227 838.203125 1612.628174 839.031982 1606.474609 838.987732 C 1599.603149 838.938293 1590.661011 837.883911 1581.974609 836.507263 C 1574.327759 835.295349 1565.778564 833.483398 1561.246094 832.013123 C 1556.819946 830.577271 1549.248291 827.128967 1542.746094 823.888123 C 1535.945313 820.498413 1527.560425 815.91333 1522.5 812.538513 C 1517.799194 809.403503 1511.522583 804.521606 1507.302734 800.612732 C 1502.937256 796.56897 1497.421509 789.856506 1493.042969 785.054138 C 1488.783325 780.382202 1483.775513 774.088196 1479.933594 770.59906 C 1476.92627 767.86792 1473.993286 764.854614 1472.421875 764.999451 C 1471.171021 765.114685 1469.707397 767.55304 1468.027344 769.749451 C 1465.864746 772.576721 1463.247803 777.565674 1460.798828 781.294373 C 1458.095703 785.409912 1454.164795 791.590881 1450.714844 795.94281 C 1446.733887 800.964539 1439.67981 808.698669 1433.578125 814.796326 C 1427.675903 820.69458 1420.705566 827.077087 1416.591797 830.216248 C 1413.105469 832.876526 1407.61731 836.39679 1403.228516 838.716248 C 1398.446411 841.24353 1390.892822 844.339355 1385 846.548279 C 1379.121948 848.751648 1371.419067 851.294983 1366.25 852.585388 C 1361.068726 853.878784 1353.067871 855.448242 1346.75 856.089294 C 1339.249878 856.85022 1329.537964 857.157471 1320.5 856.729919 C 1310.47998 856.25592 1302.836914 855.322998 1294.992188 853.681091 C 1288.789429 852.382813 1280.39856 849.647705 1274.492188 847.481873 C 1268.668335 845.346191 1260.87854 841.967773 1255.568359 839.272888 C 1250.156738 836.526489 1242.470581 832.026062 1236.888672 828.327576 C 1231.338013 824.64978 1224.291748 819.424927 1219.796875 815.593201 C 1215.566528 811.986938 1210.306274 806.673584 1206.761719 802.915466 C 1202.817261 798.733398 1196.971802 791.035767 1191.435547 785.19281 C 1185.546753 778.977722 1182.593994 774.489929 1180.021484 774.19281 C 1178.379639 774.003174 1175.438599 776.779663 1172.369141 778.747498 C 1167.591919 781.81012 1158.672363 788.559509 1150 794.157654 C 1140.498535 800.291016 1127.887207 808.064331 1119.142578 812.788513 C 1110.993896 817.190674 1099.81543 822.373596 1092.142578 825.745544 C 1084.973511 828.896057 1075.433838 832.727966 1068.9375 835.032654 C 1062.262451 837.400696 1051.763672 840.61377 1043.4375 842.952576 C 1035.091431 845.296936 1024.364136 847.976196 1017.363281 849.515076 C 1010.629944 850.995117 1000.770386 852.916687 993.363281 854.03656 C 986.111023 855.132996 976.716187 856.253723 970.5 856.651794 C 962.676941 857.15271 947.249512 857.337463 933 857.175232 C 916.283691 856.984863 900.44928 856.532715 888 855.520935 C 878.897522 854.781128 869.038879 853.430786 864 852.495544 C 858.870789 851.543457 848.893188 849.004944 839.708984 846.509216 C 829.571594 843.754395 816.199707 839.824524 807.208984 836.843201 C 798.738037 834.03418 787.531067 829.969421 780 826.872498 C 772.565247 823.815125 762.077087 819.033447 754.5 815.206482 C 746.507629 811.169739 734.875671 804.801331 726.316406 799.575623 C 717.184692 794.000366 703.92334 785.509583 694.517578 778.290466 C 681.946777 768.642151 671.745117 759.357422 657.296875 745.686951 C 646.389404 735.366577 634.918884 723.583984 629.351563 717.136169 C 624.998047 712.094116 619.473328 704.303345 615.294922 698.636169 C 611.624207 693.657593 608.673767 687.735168 606.255859 685.999451 C 604.378113 684.651489 604.217224 684.382385 602.96875 684.999451 C 601.850037 685.552368 601.593872 688.145752 601.101563 689.999451 C 600.041809 693.98999 599.080017 704.363159 597.039063 714.905701 C 594.056152 730.313965 592.95813 737.447876 589.857422 746.905701 C 587.936218 752.765747 584.647766 759.480408 582.589844 763.499451 C 580.449402 767.679565 576.198486 774.60614 572.544922 780.499451 C 568.860352 786.442749 564.454651 793.529114 561.498047 797.499451 C 558.797058 801.126465 554.481995 806.324707 550.869141 810.018982 C 546.654907 814.328186 539.265808 820.995789 532.800781 826.065857 C 526.179443 831.258484 517.880005 837.106812 512.152344 840.309998 C 506.814514 843.295166 498.561768 846.685974 492.34964 849.056091 C 486.382477 851.332703 478.832275 853.788391 474.000031 854.997498 C 469.133209 856.21521 461.196075 857.680542 454.699249 858.454529 C 447.768433 859.280151 438.104767 859.901367 431.199249 859.862732 Z M 425.22464 795.884216 C 425.485931 795.883301 425.744629 795.880859 426.000031 795.874451 C 431.607635 795.733826 439.470734 794.938843 447.900421 793.063904 C 458.475372 790.711792 464.224854 788.875732 472.400421 785.212341 C 478.067963 782.672729 484.678467 778.59375 488.601593 775.667419 C 492.752228 772.57135 499.350098 766.702454 504.240265 761.118591 C 511.44278 752.894287 514.419006 748.854797 519.335938 739.841248 C 522.713806 733.648987 525.663757 725.14209 527.455078 719.610779 C 529.01178 714.804016 530.575684 708.831421 531.076172 705.110779 C 532.620544 693.629028 532.417725 662.10907 532.976563 621.499451 C 533.667114 571.31897 533.728882 491.457703 533.908203 427.24942 C 533.944275 414.332794 533.462219 374.894714 534 362 C 534.193726 357.355194 529.810059 315.725586 534 313 C 542.133423 307.709229 566.559021 310.688965 572.5 310.032654 C 582.84082 308.89032 587.975403 308.088013 598 304.997498 C 604.973816 302.847534 613.291931 299.035706 618.412109 296.292419 C 622.940247 293.866333 628.422058 290.091125 631.912109 287.436951 C 635.199158 284.937195 639.494873 281.182556 642.326172 278.306091 C 645.384644 275.198792 649.904114 269.983093 653.175781 265.528748 C 656.550415 260.934204 660.607971 254.578796 662.958984 250.028748 C 665.232178 245.629333 667.754395 239.184082 669.359375 234.491638 C 670.919495 229.930298 672.719421 223.772766 673.484375 219.491638 C 674.28894 214.989075 674.893555 207.786499 674.982422 201.97406 C 675.073608 196.006775 674.639038 188.200378 673.943359 183.026794 C 673.241272 177.805237 671.610657 169.979553 669.849609 164.052185 C 668.001892 157.833008 664.852112 149.269226 661.941406 143.362732 C 659.109985 137.617065 654.662598 130.432251 651.195313 125.862732 C 647.737122 121.305237 641.880737 115.270508 637.328125 110.901794 C 632.787231 106.544312 626.49408 101.066406 621.919922 97.75531 C 617.385925 94.473328 610.403931 90.277588 605 87.456482 C 599.709656 84.694702 592.68988 81.552673 587.931641 79.927185 C 583.169128 78.300232 572.960571 77.747131 567 77 C 542.180969 73.889099 518.19519 75.89679 404 76 C 326.013306 76.070496 244.247086 77.171265 210 77 C 187.315994 76.886536 180.436203 77.433899 173 79 C 169.025436 79.837097 161.290527 81.912231 155.80275 84.351013 C 149.838623 87.001465 141.828583 91.016235 136.500015 94.403748 C 131.18425 97.783142 124.135765 103.221252 119.314468 107.534607 C 114.76828 111.601868 109.588333 117.079224 106.658218 120.757263 C 103.773697 124.378052 99.538193 130.330444 96.959 135.499451 C 92.822075 143.790344 91.080383 148.826782 87.410172 162.175232 C 84.829956 171.559387 82.775963 182.732056 82.130875 189.210388 C 81.577377 194.768921 81.737854 201.205566 82.035172 206.034607 C 82.310982 210.514404 83.18869 216.880859 84.035172 221.499451 C 84.92775 226.369507 86.429832 233.57843 88.183609 238.907654 C 90.032875 244.527039 93.418839 252.316956 96.259781 257.907654 C 98.994659 263.289612 102.951324 269.820984 105.76564 273.823669 C 108.461861 277.658386 112.82106 282.970703 116.353531 286.726013 C 119.929245 290.527283 125.178818 295.303162 129.000015 298.468201 C 132.673172 301.51062 137.839828 305.276917 141.500015 307.681091 C 145.117767 310.057373 150.422806 313.277039 154.525406 315.263123 C 158.786346 317.325867 165.169891 319.806458 170.025406 321.354919 C 175.187363 323.001099 182.973038 325.106506 189.000015 326.058044 C 197.19342 327.351624 202.041397 327.762634 210.500015 327.571716 C 216.533569 327.435547 223.857269 326.341675 228.335953 325.503357 C 232.602829 324.704712 239.014359 323.11853 243.835953 321.468201 C 248.650894 319.820129 257.799561 313.147034 262 312 C 269.897308 309.843384 266.723816 309.737854 287 310 C 296.248779 310.119568 304.826294 310 313 310 C 323 310 316.740326 361.37796 317 381 C 317.301086 403.750916 316.583435 415.191101 317 505 C 317.600159 634.388916 317.778839 658.623657 318 684 C 318.043121 688.946716 319.351837 711.450806 320.455109 715.321716 C 321.676208 719.606079 324.645935 726.875854 327.648468 732.999451 C 330.742126 739.308838 335.017639 746.805847 338.154327 751.124451 C 341.118225 755.205139 346.218597 760.761292 350.375031 764.751404 C 354.441498 768.65509 359.958466 773.072815 363.623077 775.688904 C 366.940643 778.057251 371.66568 780.868286 375.000031 782.66156 C 378.344055 784.460022 383.313568 786.897034 387.177765 788.351013 C 391.214294 789.869812 397.204224 791.482788 401.677765 792.561951 C 405.875854 793.574646 410.955902 794.532043 414.000031 794.94281 C 416.800934 795.320679 421.30545 795.897827 425.22464 795.884216 Z M 925.357422 792.347107 C 930.123108 792.357483 934.818848 792.327026 939 792.267029 C 949.763489 792.112488 963.136963 791.721008 971.5 790.997498 C 978.66394 790.377686 987.483765 789.096924 993 788.108826 C 998.641663 787.098206 1007.800232 784.994995 1015.283203 783.102966 C 1022.711853 781.224609 1031.5448 778.761169 1036.783203 777.052185 C 1041.433716 775.534912 1047.889771 773.094055 1052.5 771.200623 C 1058.148193 768.880859 1068.24353 764.411926 1077 760.171326 C 1086.044434 755.791199 1096.892212 750.133545 1103.400391 746.460388 C 1108.750366 743.440918 1114.972778 739.605042 1118.570313 737.188904 C 1122.256836 734.712952 1128.480347 730.156677 1133.669922 726.081482 C 1138.922852 721.956543 1146.131348 717.703369 1148.595703 713.581482 C 1152.693115 706.728271 1151.875488 703.851929 1154.408203 685.499451 C 1156.140259 672.948853 1155.872192 657.203613 1157.078125 647.499451 C 1158.1073 639.217224 1160.027832 629.033569 1161.517578 622.698669 C 1162.962769 616.553223 1165.813599 607.337219 1168.105469 600.198608 C 1170.435791 592.94043 1173.869141 583.435791 1176.220703 576.99939 C 1178.47168 570.838318 1181.696533 562.415039 1184.03125 556.49939 C 1186.429443 550.423035 1190.080078 541.4823 1192.914063 534.74939 C 1195.827637 527.827209 1200.051514 518.301575 1202.996094 511.497467 C 1205.747681 505.139374 1209.109497 497.201111 1211.310547 492.247467 C 1213.793091 486.660339 1218.280762 476.410095 1222.617188 467.49942 C 1227.40979 457.651428 1234.264038 444.263885 1239.425781 434.99942 C 1243.956421 426.867676 1249.645508 418.329742 1252.222656 413.616608 C 1254.162964 410.068024 1257.425415 404.445282 1258 401.99942 C 1258.422729 400.199738 1258.144043 397.788055 1258 394.99942 C 1257.877808 392.634369 1257.36084 386.017181 1256.548828 380.987701 C 1255.65979 375.481628 1253.926758 368.105652 1252.582031 362.987701 C 1251.226685 357.828979 1248.854492 350.46228 1247.078125 344.999451 C 1245.166748 339.121399 1242.272217 330.225586 1239.667969 323.499451 C 1236.861328 316.250305 1232.432617 305.719666 1228.669922 297.981873 C 1224.819214 290.06311 1218.856934 279.451599 1214.523438 271.981873 C 1210.589722 265.201233 1205.735718 257.355591 1202.742188 252.897888 C 1199.720215 248.397766 1194.243896 240.74231 1189.263672 234.397888 C 1184.099609 227.819153 1177.358521 219.748352 1172.763672 214.864685 C 1168.164063 209.975952 1160.474487 202.760315 1154.226563 197.16156 C 1147.737793 191.346985 1138.687744 183.876953 1132.376953 178.798279 C 1126.599976 174.14917 1119.342041 168.489136 1114.650391 165.143982 C 1110.233521 161.99469 1103.634888 157.560852 1098.5 154.50531 C 1092.775391 151.098938 1083.504639 146.17865 1076 142.47406 C 1068.630371 138.836121 1059.549927 134.819336 1054 132.489685 C 1049.003052 130.392212 1041.782227 127.671814 1036.5 125.726013 C 1031.074707 123.727539 1023.334229 120.77533 1017.5 119.06781 C 1011.21051 117.227051 1001.421509 115.051514 993.753906 113.446716 C 986.363464 111.899902 977.527771 110.220886 972.253906 109.528748 C 965.767578 108.67749 952.320496 107.340881 939.5 106.88031 C 920.206177 106.187195 911.527161 106.099731 896 107.267029 C 885.495117 108.056763 874.354248 109.983032 867 111.388123 C 861.034729 112.527832 853.464172 114.539795 848.5 115.845154 C 843.280884 117.217529 834.708191 119.284363 827.919922 121.716248 C 817.785583 125.346802 806.490601 130.117554 790.748047 137.876404 C 776.812683 144.744568 762.137329 152.930786 752.830078 158.874451 C 745.194397 163.75061 735.709106 170.921143 729.5 175.917419 C 724.559814 179.892639 719.625 183.433228 718.839844 185.347107 C 718.141113 187.050232 719.35675 192.0849 719.666016 197.499451 C 720.064209 204.470276 721.048096 212.271667 720.660156 218.999451 C 720.214111 226.735291 718.889771 234.750061 716.509766 244.499451 C 714.229919 253.838684 711.152344 263.120361 707.894531 270.718201 C 705.426636 276.473755 702.095886 282.0755 700.378906 284.718201 C 698.91272 286.974915 695.896057 290.75238 693.179688 293.999451 C 689.765015 298.081238 684.016479 304.804199 678.755859 309.999451 C 673.76123 314.931946 668.054321 319.750793 665.105469 321.999451 C 662.732788 323.808777 658.726868 326.462036 655.369141 328.405701 C 652.134155 330.278259 648.319153 332.0849 646.103516 333.083435 C 644.503052 333.804749 642.877869 334.320618 642.103516 334.677185 C 641.295898 335.049133 639.737244 336.092896 638 336.833435 C 635.497437 337.900146 630.674805 339.218018 626.5 340.671326 C 622.202026 342.16748 617.04071 343.954041 614 345.204529 C 611.646667 346.172363 609.077332 347.165344 608 347.97406 C 607.065491 348.675598 605.640137 350.147766 604.720703 351.749451 C 603.5 353.875946 602.356262 358.037292 601.365234 361.643951 C 600.249695 365.703674 599.210754 371.657501 598.314453 375.99942 C 597.415649 380.353455 596.231079 386.316772 595.408203 390.49942 C 594.543945 394.892181 592.845093 401.578827 592.240234 406.91153 C 591.013428 417.7276 590.259155 428.368591 590.5 456.41153 C 590.781494 489.183136 591.19342 495.23056 593.357422 510.99942 C 594.488953 519.24469 597.333252 529.645874 599.072266 536.49939 C 600.722107 543.001465 603.19873 552.07843 605.316406 558.49939 C 607.58667 565.382996 611.46759 575.894043 614.931641 583.99939 C 618.417847 592.156799 623.419128 602.420654 626.935547 609.032654 C 630.303955 615.366333 635.601013 624.144226 639.544922 630.532654 C 643.353943 636.702515 648.378052 644.528442 651.857422 649.499451 C 655.473755 654.666138 661.57605 662.818054 666.757813 669.278748 C 672.091431 675.928772 679.250793 684.387878 684.248047 689.778748 C 688.877258 694.772583 695.320923 701.168213 699.908203 705.337341 C 704.573792 709.577576 711.842102 715.655396 717.621094 720.052185 C 723.840881 724.784363 733.219849 731.481567 740.621094 736.042419 C 749.502625 741.515442 765.263367 750.129028 779 756.860779 C 795.218018 764.808533 808.256226 770.598633 820 774.892029 C 829.047729 778.199768 841.996155 781.744263 851.283203 784.112732 C 859.867676 786.302002 870.345398 788.6521 876.783203 789.622498 C 883.245972 790.596619 894.031799 791.459534 903 791.893982 C 909.276978 792.197998 917.414612 792.329834 925.357422 792.347107 Z M 1758.380859 791.520935 C 1760.723511 791.516296 1763.252808 791.486206 1766 791.444763 C 1775.03479 791.308472 1784.734741 790.811096 1789.5 789.905701 C 1793.356567 789.172913 1799.300903 787.176697 1804 785.259216 C 1808.686401 783.346863 1814.22522 780.514771 1817.5 778.489685 C 1820.68396 776.520691 1825.378174 773.059204 1828.818359 770.013123 C 1832.742188 766.538818 1838.530029 760.705627 1842.626953 755.606873 C 1846.725464 750.506042 1851.215942 743.631836 1853.734375 738.999451 C 1855.972534 734.882568 1858.301147 729.275391 1859.544922 725.499451 C 1860.777588 721.75708 1862.079468 715.996216 1862.822266 711.499451 C 1863.623047 706.651306 1864.32959 699.440247 1864.533203 693.999451 C 1864.75708 688.017944 1864.573975 678.791565 1864.025391 671.552185 C 1863.500244 664.621887 1862.474976 656.589844 1861.501953 652.052185 C 1860.588013 647.789551 1858.456909 641.069885 1856.541016 635.655701 C 1854.379639 629.547974 1850.495483 620.584229 1847.589844 613.655701 C 1844.503906 606.297119 1839.845215 595.793823 1836.507813 587.99939 C 1833.252319 580.396606 1829.0177 570.54895 1826.320313 563.99939 C 1823.825684 557.941956 1820.684937 549.778442 1818.427734 544.235718 C 1816.425171 539.318481 1813.96106 533.582092 1812.597656 530.192749 C 1811.399658 527.214722 1809.772339 522.918823 1808.527344 519.741577 C 1807.303101 516.617432 1805.729858 512.529785 1804.601563 509.784576 C 1803.40686 506.87793 1801.359985 502.27475 1799.771484 498.49942 C 1798.082275 494.484985 1795.841797 488.918091 1794.189453 484.99942 C 1792.48645 480.960632 1789.833618 475.040161 1787.957031 470.49942 C 1785.951294 465.645935 1783.168701 458.421478 1781.009766 452.99942 C 1778.529297 446.770111 1774.477905 436.592377 1771.125 428.253326 C 1767.825806 420.047943 1763.933105 410.380066 1761.615234 404.753326 C 1759.486694 399.586304 1756.09375 391.701324 1753.542969 385.49942 C 1750.963135 379.226654 1747.630981 371.012817 1745.476563 365.49942 C 1743.286255 359.894318 1740.152344 351.210449 1737.533203 344.499451 C 1734.841309 337.60199 1731.026489 328.390198 1728.478516 321.999451 C 1725.933105 315.615051 1722.28418 306.366455 1719.591797 299.499451 C 1716.944946 292.748474 1713.615479 283.867554 1711.224609 277.999451 C 1708.866821 272.212463 1705.21875 263.808594 1702.492188 257.499451 C 1699.977783 251.681091 1697.037354 245.128357 1695.478516 241.499451 C 1694.019653 238.103394 1691.568237 232.36084 1689.587891 227.499451 C 1687.072754 221.325378 1682.972046 210.592163 1679.341797 201.499451 C 1675.565552 192.041321 1670.966064 179.933899 1667.535156 172.309998 C 1664.503052 165.572205 1660.644531 157.02594 1657.410156 151.944763 C 1653.990356 146.572205 1648.123413 139.339905 1642.5 133.214294 C 1637.101807 127.334106 1629.999512 120.525635 1625.171875 116.819763 C 1620.687378 113.377319 1613.662476 109.125916 1608.171875 106.358826 C 1602.932495 103.718323 1596.21936 101.166931 1592 99.860779 C 1587.999634 98.622437 1581.795776 97.374939 1577 96.532654 C 1572.119995 95.675598 1565.546021 94.689392 1561 94.450623 C 1555.968872 94.186401 1547.540894 94.392334 1540.5 94.950623 C 1533.551025 95.501587 1525.51416 96.538696 1521 97.577576 C 1517.419189 98.401672 1513.183105 100.044312 1510.5 101.040466 C 1507.877808 102.014038 1503.903687 103.663269 1500.824219 105.044373 C 1497.760254 106.418518 1493.949463 108.223816 1491.537109 109.538513 C 1489.342773 110.734436 1486.507446 112.470886 1484.634766 113.745544 C 1482.270508 115.354797 1477.774658 118.550476 1473.921875 121.854919 C 1469.848022 125.348938 1465.096924 129.942322 1462.392578 133.032654 C 1459.666992 136.1474 1455.631958 141.545166 1452.669922 146.177185 C 1449.026489 151.874695 1443.59668 161.89801 1439.349609 170.499451 C 1435.390991 178.516602 1432.15625 186.905029 1430.507813 190.499451 C 1429.4021 192.910645 1427.604736 196.639282 1426.150391 199.669373 C 1424.436157 203.240967 1421.46936 208.891602 1419.365234 213.669373 C 1417.194824 218.597534 1414.813721 225.190063 1413.072266 229.499451 C 1411.410034 233.612854 1409.057617 239.372559 1407.322266 243.499451 C 1405.699585 247.358459 1403.665039 252.086731 1402.373047 254.999451 C 1401.026001 258.036377 1398.699951 263.184937 1396.662109 267.499451 C 1394.484375 272.110046 1391.336548 278.210388 1389.341797 282.499451 C 1387.463013 286.539307 1385.174194 291.909363 1383.587891 295.499451 C 1381.756592 299.644104 1378.607666 307.088745 1375.648438 313.499451 C 1372.416138 320.501648 1367.707764 329.887573 1364.552734 336.499451 C 1361.349731 343.211792 1356.612183 353.040222 1353.226563 360.49942 C 1349.606812 368.474487 1344.572266 380.468079 1340.580078 389.49942 C 1336.679932 398.322327 1331.711792 409.419922 1328.482422 416.49942 C 1325.600464 422.81723 1321.707642 431.002441 1319.195313 436.49942 C 1316.384644 442.649048 1311.608398 453.350891 1307.501953 462.49942 C 1303.296631 471.868073 1298.147949 483.38205 1294.958984 490.49942 C 1291.894409 497.339294 1287.216797 507.830719 1283.53125 515.99939 C 1279.767456 524.341431 1274.663452 535.412964 1271.267578 542.99939 C 1267.977539 550.349487 1263.436279 560.624268 1260.240234 567.99939 C 1257.243042 574.915771 1253.58667 583.556763 1251.300781 588.99939 C 1249.158569 594.099976 1246.214844 601.55127 1243.84375 606.99939 C 1241.386108 612.646423 1237.472656 620.546753 1234.943359 626.499451 C 1232.458008 632.348511 1229.121582 640.047302 1227.455078 645.499451 C 1225.886353 650.631592 1224.36853 657.645874 1223.693359 662.499451 C 1222.993286 667.531494 1222.468262 675.352234 1222.578125 681.499451 C 1222.699341 688.280029 1223.348755 697.348877 1224.746094 704.415466 C 1226.400879 712.784302 1227.998535 718.073059 1230.847656 724.415466 C 1233.141602 729.52179 1237.927856 736.557068 1241.587891 741.999451 C 1245.036987 747.128113 1249.209106 752.859375 1251.802734 755.841248 C 1254.254517 758.660034 1258.686768 763.102661 1262.705078 766.515076 C 1266.924805 770.098572 1272.696167 774.526489 1276.919922 776.952576 C 1281.459839 779.560242 1289.24353 783.370789 1296.107422 785.278748 C 1307.928833 788.564697 1311.365356 789.081726 1327.707031 789.499451 C 1342.023315 789.865356 1347.500732 789.092712 1355.707031 787.208435 C 1361.253052 785.934937 1369.372681 782.595032 1375.5 779.53656 C 1381.845947 776.368896 1388.403198 772.218384 1392.724609 768.829529 C 1396.443481 765.913147 1400.860352 761.283997 1403.806641 757.999451 C 1406.640747 754.839966 1410.235962 750.33728 1412.439453 746.999451 C 1414.938843 743.213257 1418.596924 736.392883 1421.486328 730.499451 C 1424.602051 724.14447 1428.289307 715.234863 1430.833984 708.999451 C 1433.540405 702.367737 1437.376099 691.818481 1440.572266 683.499451 C 1444.026489 674.50885 1449.047119 661.564697 1452.748047 651.999451 C 1456.341919 642.710999 1460.911255 630.770142 1463.980469 622.999451 C 1467.034302 615.267578 1471.688721 603.526855 1475.455078 594.49939 C 1479.211914 585.494873 1484.407715 574.079407 1487.548828 566.49939 C 1491.269043 557.522095 1497.867065 540.633911 1503.828125 525.49939 C 1510.74707 507.933014 1520.658325 481.952057 1528.443359 462.49942 C 1535.109131 445.843536 1540.366699 429.82605 1543.808594 424.99942 C 1545.251587 422.975952 1546.251831 421.409241 1548.142578 421.194733 C 1550.028687 420.980743 1551.233521 422.010101 1552.775391 423.694733 C 1554.673096 425.768036 1556.297852 431.440186 1558.287109 436.49942 C 1560.572998 442.312927 1563.261353 450.626587 1565.425781 456.49942 C 1567.555298 462.277466 1570.470459 470.110168 1572.650391 475.49942 C 1574.731445 480.644379 1577.726685 487.389923 1579.730469 491.99942 C 1581.761597 496.671997 1584.921997 503.623566 1587.214844 508.99942 C 1589.499756 514.356628 1592.557983 521.281311 1594.234375 525.99939 C 1595.633301 529.936462 1598.482422 534.451294 1597.373047 536.472046 C 1595.592407 539.715698 1566.167114 532.949585 1527 562 C 1491.577637 588.272827 1477 617 1477 664 C 1477 718 1524.544189 762.426392 1556 773 C 1597.990601 787.114746 1635.168579 773.464111 1641 771 C 1648.024414 768.031799 1659.234253 758.74176 1665.916016 755.243591 C 1671.425415 752.359192 1674.663818 749.34082 1676.585938 749.643982 C 1678.513062 749.947937 1681.465576 754.977539 1685.5625 758.81781 C 1690.373291 763.327148 1696.904297 769.185669 1701.853516 772.81781 C 1706.207642 776.013184 1711.545776 779.123657 1714.576172 780.727966 C 1717.434692 782.241272 1722.392944 784.504456 1726.669922 786.093201 C 1731.182739 787.769531 1737.223022 789.871216 1741.5 790.581482 C 1746.005859 791.329712 1751.353027 791.53479 1758.380859 791.520935 Z M 930 602.99939 C 846.605103 602.99939 779 535.394226 779 451.99942 C 779 368.604584 846.605103 300.999451 930 300.999451 C 1013.394836 300.999451 1081 368.604584 1081 451.99942 C 1081 535.394226 1013.394836 602.99939 930 602.99939 Z M 929.5 537.99939 C 976.720215 537.99939 1015 499.719635 1015 452.49942 C 1015 405.279175 976.720215 366.99942 929.5 366.99942 C 882.279724 366.99942 844 405.279175 844 452.49942 C 844 499.719635 882.279724 537.99939 929.5 537.99939 Z"/>
</svg>
